<svg id="Layer_1" data-name="Layer 1" xmlns="http://www.w3.org/2000/svg" viewBox="0 0 256 256"><defs><style>.cls-1{fill:#fff;}</style></defs><title>rosi_icon</title><path class="cls-1" d="M127.67,79.94H109.9V123.4h12.21v.1h10.55c11.53,0,20.8-10.17,20.8-22.17a21.31,21.31,0,0,0-6.25-15.14C143.1,82.2,135.31,79.94,127.67,79.94Z"/><path class="cls-1" d="M128,0A128,128,0,1,0,256,128,128,128,0,0,0,128,0Zm27.21,206L110,136.39V206H78.36L78.26,48.6h51.37c17.52,0,31.7,6.62,41.21,16,9.58,9.59,15.23,18.33,15.23,35.74v4.11q0,15.92-10,30c-5.53,7.74-9.91,11-18.85,14.55l36.63,57Z"/></svg>